<svg id="Logo" xmlns="http://www.w3.org/2000/svg" viewBox="0 0 328.44 344.45">
  <title>logo</title>
  <path fill="#ffffff" id="Brandon" d="M209.21.38s60.2-3.06,84.68,8.17c18,8.28,49.85,23,26,75.78-27.5,61-93.68,78.5-93.68,78.5s44.29,11,42.48,55.5-43.58,79.89-43.58,79.89H167.43s71-41.78,46-94.89C201.5,178,131.6,181.69,131.6,181.69l15-34.95s94.05,12.59,124.33-52.91c35.76-77.35-76.76-58.32-76.76-58.32Z"/>
  <polygon fill="#ffffff" id="LaDuke" points="195.19 0 59.38 313.49 213.91 313.33 178.93 344.45 0 344.45 152.75 0 195.19 0"/>
</svg>
